<?xml version="1.0" standalone="no"?>
<!DOCTYPE svg PUBLIC "-//W3C//DTD SVG 20010904//EN"
 "http://www.w3.org/TR/2001/REC-SVG-20010904/DTD/svg10.dtd">
<svg version="1.0" xmlns="http://www.w3.org/2000/svg"
 width="730.000000pt" height="730.000000pt" viewBox="0 0 730.000000 730.000000"
 preserveAspectRatio="xMidYMid meet">
<metadata>
Created by potrace 1.14, written by Peter Selinger 2001-2017
</metadata>
<g transform="translate(0.000000,730.000000) scale(0.100000,-0.100000)"
fill="#000000" stroke="none">
<path d="M2960 7269 c-41 -16 -192 -72 -335 -125 -424 -156 -627 -237 -830
-330 -143 -65 -149 -70 -191 -127 -62 -83 -58 -92 24 -55 37 17 209 87 382
155 968 383 917 361 970 414 43 43 69 84 58 94 -1 1 -37 -10 -78 -26z"/>
<path d="M3980 7153 c-14 -3 -115 -27 -225 -54 -932 -230 -1779 -534 -2490
-894 -230 -117 -509 -270 -524 -289 -17 -22 -60 -156 -75 -236 -16 -83 -19
-200 -7 -255 6 -27 -4 -45 -89 -160 -292 -395 -368 -627 -289 -880 l18 -59
-52 -91 c-110 -187 -185 -367 -223 -530 -13 -57 -19 -118 -19 -215 1 -214 43
-321 177 -446 70 -65 153 -119 231 -150 33 -13 46 -24 43 -34 -3 -8 -34 -91
-70 -185 -103 -270 -119 -340 -120 -525 -1 -139 2 -163 23 -229 47 -144 181
-303 301 -360 34 -16 93 -35 130 -41 128 -22 190 5 380 165 36 30 68 55 71 55
3 0 9 -71 12 -157 12 -304 70 -504 193 -664 112 -146 245 -224 459 -271 122
-26 557 -9 711 28 19 5 22 -1 33 -73 45 -293 153 -461 360 -560 65 -32 88 -38
162 -41 107 -5 165 12 250 74 115 85 234 211 509 539 167 199 344 366 478 452
45 29 484 253 496 253 2 0 42 17 88 39 227 106 530 221 535 204 15 -45 120
-198 174 -254 109 -114 234 -154 407 -132 301 39 481 191 551 465 44 172 49
358 17 618 -9 69 -22 179 -30 245 -8 66 -49 404 -91 750 -42 347 -80 668 -86
715 -5 47 -20 175 -34 285 -13 110 -34 277 -45 370 -11 94 -22 188 -25 210 -3
22 -12 121 -20 220 -23 273 -55 659 -55 668 0 5 26 -19 58 -52 32 -34 65 -61
74 -61 15 0 15 6 -3 73 -40 144 -82 255 -149 392 -69 141 -135 255 -149 255
-9 0 -66 -126 -81 -179 -8 -31 -8 -56 0 -94 6 -29 44 -322 86 -652 41 -330
106 -847 144 -1150 192 -1523 222 -1771 261 -2163 l42 -423 -29 -30 c-16 -17
-58 -50 -94 -73 -260 -172 -583 -145 -730 61 l-32 45 71 71 c91 92 134 152
181 252 58 125 74 193 74 325 0 138 -16 206 -79 335 -54 110 -127 190 -183
202 -185 38 -324 -71 -388 -302 -39 -143 -27 -394 30 -637 l23 -97 -141 -67
c-78 -37 -215 -98 -306 -136 -605 -253 -807 -393 -1115 -772 -244 -300 -333
-398 -445 -491 -83 -68 -204 -143 -253 -156 -194 -52 -346 84 -393 353 -19
107 -13 185 14 195 70 25 281 117 397 173 656 319 973 658 952 1015 -7 125
-26 182 -127 395 -85 177 -129 295 -116 308 4 3 33 -7 65 -22 49 -24 62 -26
80 -16 12 6 21 15 19 19 -2 5 -84 98 -183 209 -173 192 -181 200 -199 184 -28
-25 -54 -89 -67 -168 l-11 -70 40 -94 c22 -52 82 -180 132 -285 100 -207 193
-421 231 -529 l24 -69 -79 -74 c-204 -192 -486 -378 -809 -533 -156 -75 -305
-140 -321 -140 -13 0 0 93 24 170 23 74 101 237 128 266 25 28 117 155 131
181 22 43 13 66 -55 138 l-66 70 74 65 c89 79 291 279 340 338 l36 43 46 -47
c42 -42 49 -46 62 -32 8 8 17 30 20 49 5 29 0 40 -30 76 -35 40 -36 42 -26 93
33 173 -17 310 -112 310 -70 0 -125 -82 -143 -212 -10 -64 8 -111 57 -151 l41
-34 -23 -39 c-44 -73 -133 -174 -262 -299 l-129 -125 -29 15 c-43 22 -53 19
-103 -34 -48 -51 -87 -118 -87 -149 0 -10 39 -57 87 -105 l87 -85 -48 -109
c-40 -91 -81 -198 -159 -412 -9 -26 -21 -37 -52 -48 -97 -35 -215 -54 -361
-60 -477 -19 -782 170 -878 543 -22 87 -38 260 -31 326 6 53 12 62 78 135 87
96 187 179 292 242 177 107 276 148 687 286 526 177 742 304 827 484 25 53 26
64 26 216 0 129 -4 172 -19 220 -51 163 -159 338 -306 498 -62 67 -72 92 -26
68 41 -23 288 -211 366 -280 41 -36 93 -82 115 -101 21 -19 84 -78 139 -130
131 -124 261 -247 300 -285 177 -170 387 -315 538 -370 55 -20 49 1 78 -275
29 -268 52 -634 48 -766 -3 -131 4 -132 46 -3 68 205 91 424 83 775 l-5 241
81 28 c245 81 416 221 481 392 66 176 67 230 6 663 -28 201 -57 412 -65 470
-8 58 -21 157 -30 220 -9 63 -22 165 -31 225 -8 61 -21 160 -30 220 -8 61 -21
157 -29 215 -8 58 -21 156 -30 218 -26 194 -44 328 -60 445 -42 306 -54 413
-61 541 -8 159 -16 152 89 69 66 -53 67 -53 67 -27 0 41 -66 228 -112 318 -36
70 -93 173 -186 335 l-25 44 -18 -35 c-10 -20 -28 -71 -40 -113 -19 -71 -20
-85 -9 -179 6 -55 23 -164 36 -241 14 -77 29 -171 35 -210 13 -93 96 -710 114
-850 8 -60 21 -159 29 -220 8 -60 26 -195 40 -300 14 -104 28 -206 30 -225 3
-19 17 -120 31 -225 24 -186 35 -263 74 -555 11 -80 27 -208 35 -285 9 -77 23
-200 31 -274 18 -158 19 -156 -79 -225 -122 -88 -268 -132 -376 -115 -29 4
-55 10 -57 13 -3 3 -16 98 -28 213 -30 263 -48 410 -85 698 -108 833 -155
1233 -146 1242 3 3 29 -14 58 -39 98 -81 92 -79 84 -30 -12 77 -67 235 -120
342 -67 138 -188 342 -198 332 -4 -4 -22 -41 -41 -82 l-33 -75 22 -220 c28
-275 46 -429 83 -720 120 -932 142 -1120 171 -1430 10 -104 16 -191 15 -193
-7 -8 -115 51 -187 100 -72 49 -134 102 -283 238 -167 153 -620 534 -943 795
-67 54 -119 102 -115 106 5 3 40 17 78 30 62 21 88 24 230 24 122 0 176 -5
225 -18 95 -26 275 -119 352 -182 67 -54 68 -54 80 -32 17 30 23 231 9 284
-10 35 -23 50 -84 94 -112 81 -184 147 -249 228 -145 180 -256 502 -284 824
l-7 78 54 -22 c30 -11 60 -23 67 -26 6 -3 12 -3 12 0 0 2 -56 120 -125 262
-79 163 -129 255 -137 253 -17 -6 -43 -59 -68 -139 -38 -125 -22 -367 41 -627
12 -48 47 -179 79 -292 51 -180 78 -283 96 -369 5 -23 4 -24 -48 -18 -73 7
-240 -9 -342 -33 -72 -17 -166 -49 -291 -100 -29 -12 -35 -10 -135 59 -58 40
-134 93 -170 119 -36 25 -166 116 -290 202 -124 86 -247 172 -275 191 -27 19
-162 113 -300 209 -380 263 -475 332 -475 340 0 9 254 152 395 223 242 120
459 213 940 399 171 66 349 135 396 154 143 56 835 280 969 312 170 42 315 62
451 62 133 0 165 -13 199 -79 50 -99 25 -145 -225 -416 -256 -277 -343 -389
-409 -522 -32 -65 -70 -173 -63 -180 2 -2 26 25 53 59 41 53 186 222 204 238
21 19 256 288 302 346 210 264 327 525 304 678 -9 58 -68 126 -133 153 -50 22
-140 34 -183 26z m-2805 -2177 c94 -71 301 -229 460 -349 401 -304 381 -288
360 -303 -10 -7 -43 -37 -74 -66 -380 -358 -473 -446 -584 -551 -72 -69 -326
-281 -420 -350 -125 -93 -286 -195 -362 -228 -36 -16 -68 -22 -124 -21 -136 1
-221 50 -271 158 -43 92 -53 152 -47 279 8 153 55 301 181 567 40 85 53 102
104 142 96 73 207 199 246 277 35 69 54 134 43 145 -10 10 -61 -27 -92 -66
-37 -48 -66 -64 -98 -56 -25 6 -37 28 -56 101 -24 88 -5 205 52 328 27 56 137
230 211 332 9 13 29 -1 471 -339z m1163 -923 c364 -296 584 -536 696 -760 30
-59 76 -167 76 -177 0 -2 -48 -35 -107 -74 -118 -76 -299 -170 -439 -227 -49
-20 -98 -40 -109 -45 -11 -6 -105 -42 -210 -81 -577 -215 -837 -365 -1087
-626 -160 -168 -231 -234 -292 -274 -98 -64 -185 -82 -284 -57 -118 29 -221
227 -222 424 0 146 71 409 165 610 38 81 49 96 76 106 67 23 247 118 334 175
154 101 363 280 655 558 209 200 301 280 448 394 59 46 185 130 196 130 4 1
51 -34 104 -76z m982 -1465 c22 -36 27 -88 9 -88 -22 0 -79 68 -79 94 0 40 44
36 70 -6z m2310 -28 c96 -49 190 -237 190 -381 0 -59 -71 -130 -202 -202
l-102 -56 -19 31 c-35 57 -85 195 -102 280 -31 147 -7 252 72 316 46 38 104
42 163 12z"/>
<path d="M1155 4724 c-69 -36 -105 -97 -105 -179 0 -64 26 -119 80 -172 l42
-43 -38 -52 c-91 -129 -176 -221 -453 -495 -163 -161 -292 -293 -288 -293 13
0 219 149 342 247 220 176 415 387 489 532 9 17 21 31 27 31 6 0 37 -25 68
-55 51 -48 60 -53 71 -40 28 33 -14 148 -74 204 -25 24 -25 24 -19 151 l6 128
-26 26 c-30 30 -76 34 -122 10z m69 -150 c21 -21 22 -84 1 -84 -27 0 -87 63
-80 83 9 22 58 23 79 1z"/>
<path d="M1899 3472 c-8 -15 -37 -64 -63 -109 l-48 -82 43 -52 c47 -55 132
-125 188 -154 l35 -17 27 33 c16 19 48 60 71 91 24 32 46 57 49 58 6 0 120
-96 206 -173 44 -39 85 -11 159 112 l45 73 -68 72 c-132 140 -183 182 -208
172 -8 -3 -32 -32 -54 -65 -43 -67 -86 -121 -96 -121 -4 0 -42 28 -84 63 -97
81 -161 127 -175 127 -6 0 -18 -12 -27 -28z"/>
<path d="M1510 3098 c-32 -52 -48 -124 -56 -246 -4 -62 -10 -114 -14 -117 -4
-2 -31 27 -60 66 -62 82 -168 184 -200 192 -36 9 -67 -30 -75 -97 -7 -55 -6
-59 25 -91 44 -45 84 -61 119 -48 26 9 30 6 75 -51 49 -63 99 -149 110 -189
16 -63 53 70 66 243 6 69 13 136 16 150 13 62 25 100 33 100 4 0 27 -18 49
-41 23 -22 48 -39 55 -37 6 3 17 24 23 49 13 52 2 82 -46 123 -46 38 -94 36
-120 -6z"/>
<path d="M823 2678 c-44 -54 -106 -237 -119 -346 -10 -94 1 -147 42 -187 57
-57 125 -39 159 42 16 37 20 114 8 127 -4 3 -23 -12 -43 -35 -41 -47 -54 -46
-76 7 -23 54 -17 151 16 280 30 116 32 136 13 112z"/>
<path d="M5319 6868 c-24 -37 -48 -98 -64 -162 -14 -58 -14 -66 15 -215 66
-350 125 -745 189 -1276 23 -181 48 -385 56 -452 8 -68 15 -135 15 -150 0 -23
-30 -58 -172 -196 -149 -144 -167 -165 -133 -152 57 23 106 53 225 139 l105
76 12 -48 c37 -141 81 -510 84 -707 1 -44 4 -93 8 -110 6 -27 10 -19 39 68 51
157 65 287 59 527 -3 113 -13 254 -21 315 l-16 110 34 35 c18 19 54 63 81 98
45 58 75 76 90 52 14 -22 25 4 25 59 0 32 7 76 16 97 9 22 19 77 21 124 4 76
2 90 -19 129 -31 58 -68 86 -102 77 -39 -10 -107 -75 -129 -125 -18 -42 -18
-45 -1 -89 9 -26 35 -73 56 -106 43 -67 45 -54 -31 -162 -38 -54 -45 -50 -54
31 -3 28 -29 208 -57 400 -90 607 -147 1010 -145 1013 1 1 35 -27 75 -63 40
-36 76 -65 80 -65 18 0 -40 193 -100 332 -43 98 -179 357 -209 396 l-17 24
-15 -24z m565 -1717 c25 -28 33 -89 12 -97 -32 -12 -82 51 -72 92 8 29 36 32
60 5z"/>
<path d="M3333 6508 c-32 -92 -46 -169 -47 -258 0 -86 3 -102 32 -162 32 -71
49 -81 92 -58 45 24 92 152 65 178 -4 4 -22 -10 -41 -31 l-35 -38 -29 29 c-40
40 -46 87 -28 217 8 60 12 120 9 133 -6 22 -7 21 -18 -10z"/>
<path d="M4230 6334 c-22 -56 -40 -166 -40 -238 0 -66 2 -74 28 -98 34 -32 65
-48 92 -48 58 0 157 85 180 155 39 118 -53 237 -195 252 -53 6 -55 5 -65 -23z
m146 -126 c57 -38 67 -68 34 -103 -28 -30 -100 -48 -134 -35 -22 8 -26 16 -26
52 0 24 3 60 6 81 6 34 9 37 39 37 20 0 51 -12 81 -32z"/>
<path d="M2214 6150 c-44 -93 -94 -302 -94 -395 0 -98 56 -185 119 -185 47 0
98 50 107 106 3 25 4 48 0 51 -3 4 -24 -3 -45 -15 l-39 -22 -18 28 c-51 74
-56 146 -23 290 11 49 19 111 17 138 l-3 49 -21 -45z"/>
<path d="M1562 5962 c-66 -152 -102 -387 -73 -474 19 -57 56 -88 106 -88 60 0
105 53 105 125 l0 36 -41 -23 -41 -23 -23 29 c-46 57 -55 133 -30 246 29 134
38 201 28 211 -7 7 -17 -6 -31 -39z"/>
<path d="M5073 5907 c-35 -98 -47 -168 -47 -282 -1 -106 2 -125 21 -162 41
-75 109 -106 149 -66 38 38 55 126 35 177 -6 16 -11 12 -35 -28 -26 -45 -29
-47 -49 -33 -33 21 -64 83 -71 140 -4 27 -2 101 5 164 6 63 9 116 7 118 -2 3
-9 -10 -15 -28z"/>
<path d="M6647 5520 c-47 -114 -53 -155 -32 -205 9 -22 27 -116 40 -210 31
-218 101 -720 160 -1140 25 -181 50 -359 55 -395 26 -173 59 -493 75 -730 28
-417 46 -660 51 -684 6 -27 11 -18 49 76 68 169 70 182 69 473 -2 342 -28 639
-100 1130 -102 690 -103 699 -150 1134 l-6 54 80 -66 c44 -37 82 -67 85 -67 7
0 -10 73 -35 150 -30 94 -122 274 -220 432 l-85 137 -36 -89z"/>
<path d="M2557 5519 c-21 -17 -47 -49 -58 -72 -25 -47 -48 -167 -49 -247 0
-30 -3 -71 -6 -91 l-6 -37 -55 82 c-99 147 -183 213 -259 204 -23 -2 -30 -9
-36 -38 -20 -93 27 -180 99 -180 48 0 99 -26 130 -67 14 -18 49 -77 77 -130
28 -53 56 -97 61 -97 6 -1 18 24 29 54 14 43 19 93 22 230 6 291 27 332 127
255 l46 -35 16 29 c33 65 12 131 -51 157 -44 19 -44 19 -87 -17z"/>
<path d="M3810 5388 c-41 -42 -70 -122 -88 -240 l-17 -114 -35 41 c-77 90
-208 175 -272 175 -21 0 -29 -6 -34 -25 -17 -67 30 -141 87 -137 45 4 124 -36
165 -82 20 -22 61 -76 92 -118 30 -43 59 -78 64 -78 4 0 8 101 8 224 0 123 3
231 6 240 12 30 98 11 125 -28 11 -14 29 29 29 68 0 73 -85 121 -130 74z"/>
<path d="M4512 4781 c-70 -160 -67 -370 5 -503 37 -68 93 -95 142 -68 48 25
71 184 33 223 -20 20 -20 19 -36 -11 -9 -17 -16 -38 -16 -47 0 -29 -30 -29
-61 1 -63 60 -73 115 -53 286 20 165 17 191 -14 119z"/>
<path d="M5957 4350 c-41 -91 -85 -355 -72 -435 3 -19 7 -51 10 -70 9 -54 49
-95 94 -95 43 0 62 17 86 73 16 38 21 137 7 137 -5 0 -18 -18 -31 -40 -12 -22
-26 -40 -30 -40 -14 0 -40 35 -62 85 -19 43 -21 60 -16 139 3 50 13 124 22
165 9 41 14 84 12 95 -3 18 -6 15 -20 -14z"/>
<path d="M7167 4313 c-45 -200 -57 -278 -57 -364 0 -133 26 -201 92 -235 56
-29 98 14 98 101 0 53 -16 67 -40 34 -16 -20 -20 -21 -35 -9 -25 20 -44 64
-56 123 -7 39 -6 89 7 205 12 105 14 156 7 163 -7 7 -12 2 -16 -18z"/>
<path d="M3856 4153 c-74 -153 -108 -369 -71 -456 17 -42 68 -87 99 -87 28 0
68 35 90 79 17 32 24 96 12 108 -3 4 -24 -10 -45 -31 l-39 -38 -25 34 c-38 49
-49 112 -36 204 6 42 14 86 18 98 10 25 25 126 19 126 -2 0 -12 -17 -22 -37z"/>
<path d="M4835 3682 c-116 -62 -332 -191 -343 -206 -18 -22 -32 -76 -20 -76
10 0 211 109 370 201 38 22 63 44 73 66 31 64 17 66 -80 15z"/>
<path d="M5406 3588 c-7 -13 -36 -62 -64 -110 l-51 -87 21 -28 c70 -91 237
-214 256 -187 4 5 36 47 70 93 56 72 66 80 80 69 10 -7 63 -53 120 -101 l103
-89 37 24 c22 15 53 52 76 91 21 37 44 72 52 78 28 23 -233 277 -269 263 -7
-2 -32 -34 -57 -71 -25 -37 -56 -80 -68 -95 l-24 -28 -86 73 c-88 74 -160 127
-174 127 -4 0 -14 -10 -22 -22z"/>
<path d="M4853 2414 c-18 -9 -55 -40 -83 -69 -65 -69 -65 -91 -4 -173 l46 -62
-51 -67 c-28 -36 -50 -68 -48 -70 9 -8 86 27 113 52 16 15 68 47 117 71 95 48
147 94 147 130 0 29 -7 29 -88 4 -35 -11 -80 -20 -99 -20 -66 0 -131 61 -102
96 5 6 23 17 40 24 25 11 32 10 49 -5 29 -26 54 -16 58 23 4 39 -21 82 -46 82
-9 0 -31 -8 -49 -16z"/>
<path d="M6187 2403 c-15 -24 -48 -127 -67 -203 -57 -239 -30 -390 69 -390 39
0 66 20 91 70 28 54 34 140 9 140 -4 0 -13 -18 -19 -39 -10 -37 -32 -57 -51
-46 -5 4 -21 27 -36 53 -25 42 -28 56 -27 137 0 58 9 123 23 183 20 83 23 120
8 95z"/>
<path d="M2670 2300 c-175 -80 -459 -203 -735 -318 -114 -48 -205 -93 -229
-113 -51 -43 -76 -99 -76 -176 0 -61 1 -62 46 -102 103 -90 139 -20 54 104
l-30 43 23 15 c69 45 343 173 617 287 166 69 330 147 354 168 25 22 76 102 76
119 0 17 -2 17 -100 -27z"/>
<path d="M3315 2028 c-22 -74 -45 -212 -45 -269 0 -60 28 -96 85 -109 53 -12
101 1 159 45 89 69 113 172 57 255 -33 49 -98 96 -150 109 -97 24 -89 27 -106
-31z m112 -99 c39 -19 103 -82 103 -101 0 -5 -21 -22 -47 -38 -50 -32 -118
-41 -141 -18 -13 13 -16 95 -6 147 8 38 29 40 91 10z"/>
<path d="M2292 1734 c-39 -27 -53 -80 -65 -253 l-12 -164 -56 74 c-96 127
-129 155 -201 172 -23 6 -27 3 -37 -25 -16 -45 -14 -110 5 -136 10 -14 25 -22
45 -22 35 0 96 -29 124 -60 11 -12 45 -62 75 -112 30 -50 60 -91 65 -92 6 0
19 24 30 54 17 49 19 78 18 252 -2 109 1 199 6 202 4 3 31 -10 59 -29 28 -18
56 -36 61 -40 11 -6 41 56 41 85 0 18 -81 100 -99 100 -5 0 -15 2 -23 5 -7 3
-23 -2 -36 -11z"/>
<path d="M985 1480 c-53 -77 -85 -218 -71 -313 9 -58 51 -107 93 -107 45 0
103 70 103 123 0 34 -8 38 -47 22 -42 -18 -57 -12 -77 30 -23 48 -20 100 13
198 17 48 26 87 22 87 -5 0 -21 -18 -36 -40z"/>
<path d="M5587 1088 c-37 -115 -49 -178 -54 -289 -6 -130 3 -177 44 -209 43
-33 78 -26 113 22 43 59 80 196 50 186 -5 -2 -25 -25 -43 -53 -41 -63 -63 -65
-94 -6 -29 56 -30 133 -3 251 31 137 22 206 -13 98z"/>
<path d="M5111 875 c-40 -46 -58 -112 -71 -265 -6 -69 -13 -126 -14 -127 -2
-2 -27 39 -57 89 -98 168 -238 283 -286 236 -21 -21 -28 -97 -14 -141 19 -56
47 -86 89 -92 99 -17 145 -61 217 -209 l54 -111 17 40 c27 66 43 182 44 321 0
114 2 133 18 147 27 25 44 21 93 -18 24 -19 49 -35 55 -35 22 0 46 50 40 84
-10 51 -89 116 -141 116 -7 0 -27 -16 -44 -35z"/>
<path d="M4227 638 c-46 -145 -70 -331 -53 -421 10 -55 50 -97 92 -97 28 0 39
7 64 42 43 59 80 196 50 186 -5 -1 -25 -25 -43 -53 -41 -63 -63 -65 -94 -6
-29 56 -30 133 -3 251 31 137 22 206 -13 98z"/>
<path d="M2253 598 c-21 -26 -44 -125 -50 -215 -9 -145 26 -215 109 -217 38
-1 44 3 71 41 30 41 51 143 30 143 -5 0 -24 -16 -43 -35 -32 -33 -35 -34 -53
-17 -45 40 -58 98 -47 206 8 85 2 118 -17 94z"/>
</g>
</svg>
