<?xml version="1.0" standalone="no"?>
<!DOCTYPE svg PUBLIC "-//W3C//DTD SVG 20010904//EN"
 "http://www.w3.org/TR/2001/REC-SVG-20010904/DTD/svg10.dtd">
<svg version="1.0" xmlns="http://www.w3.org/2000/svg"
 width="730.000000pt" height="730.000000pt" viewBox="0 0 730.000000 730.000000"
 preserveAspectRatio="xMidYMid meet">
<metadata>
Created by potrace 1.14, written by Peter Selinger 2001-2017
</metadata>
<g transform="translate(0.000000,730.000000) scale(0.100000,-0.100000)"
fill="#000000" stroke="none">
<path d="M2725 7184 c-801 -298 -1055 -408 -1112 -481 -59 -75 -69 -112 -25
-89 26 14 429 176 622 251 190 74 525 206 545 215 11 5 56 23 100 41 45 18 96
47 116 66 36 35 87 113 72 112 -4 0 -147 -52 -318 -115z"/>
<path d="M3795 7111 c-227 -57 -433 -112 -570 -153 -55 -16 -131 -38 -170 -50
-718 -211 -1472 -520 -2060 -843 -88 -49 -181 -100 -206 -113 -48 -26 -65 -54
-99 -165 -36 -116 -51 -295 -31 -367 6 -21 -6 -42 -68 -125 -177 -236 -247
-356 -300 -512 -41 -123 -49 -224 -27 -333 10 -46 22 -92 27 -102 8 -14 -2
-38 -45 -110 -60 -103 -120 -223 -152 -308 -72 -186 -88 -261 -88 -425 -1
-236 37 -331 188 -472 72 -68 213 -153 252 -153 8 0 14 -3 14 -6 0 -3 -24 -67
-54 -142 -116 -297 -146 -417 -147 -588 -1 -219 76 -389 239 -526 57 -48 106
-72 192 -93 133 -34 212 -7 375 130 55 46 103 84 106 85 3 0 9 -75 12 -168 9
-267 62 -471 159 -610 116 -166 257 -260 466 -309 109 -26 432 -23 625 4 l137
20 0 -23 c0 -42 31 -179 61 -264 33 -98 101 -203 168 -261 25 -22 84 -59 130
-82 78 -39 90 -42 182 -45 92 -4 102 -3 161 26 35 16 79 43 98 58 75 62 212
201 306 311 206 240 319 370 373 427 72 75 215 195 287 241 88 57 390 205 669
330 186 84 448 182 452 169 14 -42 112 -189 165 -247 70 -78 118 -107 218
-133 125 -32 332 1 482 77 66 33 178 153 215 230 91 188 113 444 68 784 -15
119 -30 238 -60 490 -8 72 -22 186 -30 255 -9 69 -22 180 -30 248 -19 160 -41
342 -60 497 -8 69 -22 181 -30 250 -8 69 -22 180 -30 247 -8 68 -21 177 -29
243 -45 366 -55 475 -91 925 -8 102 -17 211 -21 243 -3 31 -4 57 -2 57 3 0 19
-20 37 -45 30 -42 82 -80 101 -73 20 8 -79 304 -158 468 -48 101 -139 250
-152 250 -4 0 -24 -37 -45 -82 -46 -100 -47 -125 -17 -343 13 -88 41 -304 62
-480 38 -304 58 -457 80 -625 11 -76 115 -905 164 -1305 8 -66 36 -282 61
-480 45 -349 59 -477 90 -787 24 -238 44 -439 51 -501 8 -66 2 -75 -81 -137
-190 -141 -430 -176 -610 -90 -62 30 -135 93 -166 144 l-18 30 69 68 c175 173
271 404 257 623 -12 188 -117 410 -226 478 -28 17 -51 22 -111 22 -65 0 -82
-4 -129 -30 -92 -51 -166 -172 -197 -324 -25 -126 -15 -340 25 -531 17 -80 31
-149 31 -153 0 -12 -218 -114 -476 -222 -478 -202 -664 -316 -890 -547 -97
-99 -130 -137 -362 -421 -117 -142 -214 -238 -323 -319 -121 -90 -183 -120
-261 -126 -91 -6 -141 14 -206 82 -92 97 -126 192 -126 354 l-1 113 100 40
c523 210 927 470 1110 714 122 163 150 242 149 420 -1 153 -11 188 -130 429
-73 148 -122 281 -109 294 4 4 29 -5 56 -21 54 -30 70 -33 98 -15 18 11 -26
65 -335 406 l-21 24 -26 -27 c-26 -29 -52 -106 -62 -190 -7 -54 4 -84 150
-390 148 -313 172 -366 221 -497 24 -65 44 -121 44 -127 0 -9 -123 -122 -217
-200 -149 -121 -356 -252 -578 -366 -126 -64 -393 -185 -409 -185 -19 0 15
149 59 260 31 77 68 137 148 243 32 43 68 98 79 123 l20 46 -24 26 c-12 15
-45 49 -71 77 l-48 50 63 55 c103 90 225 210 308 301 l78 86 46 -46 47 -46 20
24 c29 36 24 75 -15 119 -32 35 -34 40 -26 82 11 54 13 165 4 209 -10 48 -72
112 -110 113 -67 2 -133 -85 -149 -195 -13 -91 8 -140 79 -190 18 -13 18 -14
0 -43 -57 -90 -147 -195 -264 -307 l-133 -126 -28 14 c-15 8 -34 15 -42 15
-19 0 -75 -57 -112 -115 -55 -86 -55 -85 47 -185 l91 -88 -53 -118 c-29 -66
-75 -182 -102 -259 -27 -77 -53 -149 -57 -161 -18 -42 -269 -94 -456 -94 -227
0 -428 56 -580 160 -106 73 -203 224 -246 380 -15 55 -22 118 -26 232 l-5 158
114 114 c126 126 240 207 405 287 143 68 206 93 553 209 473 160 674 270 784
429 61 88 79 308 37 464 -41 157 -152 344 -305 516 -36 41 -64 76 -62 78 14
14 265 -170 416 -305 52 -47 111 -99 130 -115 38 -33 173 -162 335 -317 140
-134 237 -219 326 -282 80 -57 228 -137 292 -158 20 -6 37 -13 37 -15 0 -2 9
-84 20 -182 29 -260 29 -256 40 -412 6 -79 12 -233 13 -343 2 -220 6 -227 52
-89 68 205 90 406 83 765 l-5 252 81 28 c301 105 458 256 512 493 26 112 23
234 -14 493 -31 214 -43 303 -77 548 -8 59 -28 208 -45 332 -58 428 -82 601
-105 773 -9 61 -22 159 -30 217 -8 58 -21 157 -30 220 -42 304 -54 415 -61
540 -6 115 -5 133 7 124 8 -6 45 -35 83 -65 l69 -53 -7 52 c-15 112 -103 305
-269 590 -18 32 -37 66 -41 77 -6 17 -10 13 -27 -25 -11 -25 -30 -79 -41 -120
-19 -70 -20 -82 -8 -180 7 -58 23 -166 36 -240 21 -116 98 -677 204 -1475 40
-303 93 -701 135 -1010 19 -143 44 -341 55 -440 11 -99 24 -218 30 -263 12
-109 2 -125 -138 -210 -111 -68 -278 -102 -356 -72 -29 11 -27 1 -55 260 -12
102 -28 239 -36 305 -14 114 -23 186 -81 635 -49 380 -83 662 -109 903 -4 31
-4 57 -2 57 3 0 36 -25 72 -55 37 -30 71 -55 75 -55 22 0 -46 216 -114 364
-41 89 -193 356 -203 356 -2 0 -21 -37 -42 -82 -43 -93 -42 -55 -12 -353 18
-176 60 -523 111 -920 81 -627 133 -1083 146 -1274 l7 -104 -74 39 c-83 44
-180 114 -278 202 -194 174 -272 242 -437 383 -208 177 -457 383 -627 519
-135 108 -136 102 10 139 161 41 365 22 539 -50 74 -31 217 -120 265 -165 43
-40 53 -15 57 136 5 165 -1 180 -105 253 -99 70 -204 172 -266 259 -119 167
-213 448 -248 740 -6 53 -9 101 -8 107 2 5 30 -1 63 -15 33 -13 61 -22 63 -20
2 2 -53 121 -123 265 -146 300 -139 295 -193 144 -29 -78 -31 -94 -31 -216 0
-204 27 -339 177 -882 28 -99 53 -195 56 -213 l7 -33 -58 6 c-31 4 -104 2
-162 -5 -154 -16 -268 -48 -471 -133 -24 -9 -34 -5 -110 50 -46 33 -241 169
-434 303 -192 134 -393 273 -445 310 -52 37 -133 93 -180 125 -47 32 -107 75
-135 94 -84 59 -248 173 -292 203 -24 16 -43 33 -43 37 0 15 398 229 565 304
33 14 96 43 140 62 97 45 448 187 640 260 77 30 217 84 310 120 94 37 226 85
295 107 69 22 231 75 360 119 387 129 623 179 843 179 125 0 163 -14 190 -67
58 -113 36 -152 -288 -505 -155 -169 -179 -196 -246 -287 -73 -99 -135 -227
-153 -316 l-6 -30 33 39 c17 22 58 71 90 110 33 39 100 116 151 171 288 311
411 474 511 674 75 151 103 298 71 374 -26 62 -82 106 -165 131 -79 23 -115
20 -326 -33z m-2872 -1944 c410 -312 1014 -773 1047 -800 l35 -27 -60 -58
c-33 -31 -94 -88 -135 -126 -41 -38 -156 -147 -255 -241 -452 -431 -703 -630
-973 -772 -58 -30 -71 -33 -150 -33 -133 1 -222 48 -267 143 -45 96 -58 170
-51 292 8 153 47 275 169 539 54 116 59 122 135 185 134 112 211 207 252 311
20 51 26 100 13 100 -19 -1 -55 -29 -98 -77 -65 -73 -98 -72 -128 4 -53 136
-19 297 105 497 53 86 147 216 155 216 2 0 95 -69 206 -153z m1395 -1099 c356
-295 542 -487 665 -686 49 -80 133 -259 125 -267 -1 -2 -48 -33 -103 -70 -171
-115 -420 -228 -862 -394 -368 -138 -580 -248 -793 -411 -80 -62 -150 -129
-298 -283 -111 -117 -179 -172 -250 -203 -118 -53 -241 -38 -313 39 -76 82
-130 237 -129 370 1 120 57 350 123 502 77 178 85 192 119 205 119 47 422 221
463 265 6 6 35 31 65 55 45 36 200 170 220 190 3 3 34 32 70 64 36 33 112 105
170 160 209 199 328 304 460 403 57 42 180 123 188 123 2 0 38 -28 80 -62z
m977 -1454 c19 -8 45 -55 45 -84 0 -30 -34 -25 -64 11 -43 51 -32 92 19 73z
m2343 -61 c97 -66 182 -239 182 -370 0 -68 -64 -130 -223 -217 -38 -21 -74
-35 -81 -33 -14 6 -61 100 -88 176 -26 76 -48 183 -48 235 0 177 139 289 258
209z"/>
<path d="M1140 4719 c-52 -30 -83 -80 -88 -145 -7 -83 13 -136 70 -195 l50
-49 -57 -77 c-111 -146 -148 -186 -468 -502 -141 -140 -255 -256 -253 -259 9
-8 275 187 421 309 153 127 315 309 397 445 18 29 37 54 42 54 5 0 34 -25 64
-55 43 -45 57 -54 68 -44 34 28 4 126 -60 197 l-36 39 8 112 c8 122 0 160 -37
180 -31 17 -82 13 -121 -10z m82 -146 c23 -20 25 -83 3 -83 -8 0 -32 15 -52
34 -32 29 -35 36 -24 50 17 21 49 20 73 -1z"/>
<path d="M1910 3500 c0 -5 -27 -55 -60 -111 -33 -55 -60 -105 -60 -110 0 -17
135 -146 192 -184 32 -20 64 -35 72 -32 8 3 43 44 78 91 35 47 65 85 68 85 5
1 86 -67 160 -133 86 -75 76 -71 107 -50 34 22 57 50 106 132 l38 63 -87 95
c-92 101 -166 159 -189 150 -8 -3 -28 -24 -44 -48 -82 -119 -97 -138 -104
-138 -5 0 -48 33 -95 74 -77 65 -162 126 -177 126 -3 0 -5 -4 -5 -10z"/>
<path d="M1521 3111 c-38 -40 -59 -119 -67 -249 -4 -62 -10 -115 -15 -117 -4
-3 -30 23 -57 57 -56 71 -155 168 -190 187 -47 25 -92 -36 -92 -125 0 -24 9
-40 40 -68 46 -41 82 -53 116 -37 13 6 24 7 24 3 0 -4 18 -27 40 -52 22 -25
58 -82 81 -127 23 -45 46 -80 50 -77 16 10 39 113 49 224 18 196 32 280 49
280 4 0 26 -18 49 -40 22 -22 45 -40 51 -40 15 0 31 44 33 87 2 42 -49 98
-101 113 -30 8 -36 6 -60 -19z"/>
<path d="M816 2668 c-31 -47 -74 -156 -95 -237 -36 -144 -25 -249 30 -295 79
-67 169 5 169 133 0 26 -3 50 -6 54 -3 3 -20 -13 -38 -35 -17 -23 -36 -43 -43
-45 -7 -3 -21 14 -32 36 -30 58 -27 138 9 283 17 66 29 123 26 125 -2 3 -11
-6 -20 -19z"/>
<path d="M5312 6858 c-33 -53 -65 -159 -65 -213 0 -27 18 -149 41 -270 57
-307 106 -644 167 -1135 19 -157 39 -319 44 -360 6 -41 15 -123 22 -183 l12
-107 -172 -167 c-94 -91 -170 -168 -167 -170 9 -9 134 62 232 133 57 41 110
77 117 80 31 11 80 -300 97 -611 13 -232 18 -276 30 -255 20 36 61 183 75 270
21 132 19 424 -4 615 l-18 150 41 45 c23 25 59 69 80 98 26 36 44 52 55 49 47
-13 46 -14 52 58 4 39 15 93 24 120 47 142 -12 316 -102 301 -75 -11 -162
-123 -147 -189 7 -31 23 -65 68 -136 15 -22 26 -47 26 -54 0 -16 -73 -131 -88
-141 -11 -7 -15 9 -31 124 -10 69 -43 294 -116 795 -25 171 -52 362 -61 425
-8 63 -17 122 -20 130 -5 15 9 3 104 -84 29 -26 55 -46 57 -44 9 9 -44 198
-79 281 -61 149 -223 458 -247 472 -4 3 -16 -10 -27 -27z m571 -1706 c21 -23
31 -72 18 -91 -8 -12 -13 -12 -35 2 -33 22 -49 53 -42 83 8 29 36 32 59 6z"/>
<path d="M3320 6474 c-50 -161 -49 -298 2 -401 19 -38 30 -49 52 -51 32 -4 50
9 84 62 24 39 35 107 19 123 -5 4 -24 -9 -43 -29 l-33 -37 -30 30 c-41 40 -46
90 -26 227 11 74 13 117 7 129 -8 13 -14 3 -32 -53z"/>
<path d="M4211 6273 c-23 -101 -28 -239 -8 -263 54 -68 122 -78 188 -27 77 59
103 100 107 170 4 59 2 66 -30 107 -44 58 -103 91 -177 97 l-59 6 -21 -90z
m173 -70 c24 -17 42 -39 44 -52 5 -31 -33 -69 -77 -78 -51 -10 -54 -10 -78 1
-25 10 -28 34 -16 121 l6 47 40 -5 c22 -3 59 -18 81 -34z"/>
<path d="M2207 6140 c-31 -69 -51 -142 -71 -249 -20 -106 -20 -175 0 -235 42
-123 190 -109 210 20 3 25 3 48 0 52 -4 4 -25 -3 -46 -16 l-39 -22 -28 47
c-37 63 -41 137 -15 256 29 128 34 170 23 187 -8 11 -15 2 -34 -40z"/>
<path d="M1563 5968 c-52 -106 -86 -273 -82 -399 5 -109 25 -149 85 -169 68
-23 134 35 134 119 l0 43 -36 -22 c-20 -11 -43 -19 -50 -16 -7 3 -23 24 -36
48 -28 53 -30 161 -5 255 22 79 33 183 20 183 -5 0 -19 -19 -30 -42z"/>
<path d="M5061 5873 c-44 -150 -53 -289 -26 -380 19 -64 70 -113 119 -113 40
0 59 19 80 83 13 39 14 57 6 88 -6 21 -13 39 -15 39 -2 0 -16 -20 -31 -45 -25
-43 -28 -45 -48 -32 -32 20 -63 90 -70 155 -3 31 0 103 7 160 7 57 10 105 6
108 -5 2 -17 -26 -28 -63z"/>
<path d="M6680 5608 c0 -2 -18 -48 -40 -102 -43 -105 -48 -144 -26 -197 19
-47 39 -176 116 -749 11 -85 25 -182 30 -215 5 -33 12 -80 15 -105 3 -25 10
-74 16 -110 10 -70 58 -413 83 -600 33 -236 54 -467 81 -855 29 -429 38 -545
45 -545 4 0 23 42 43 93 74 186 72 172 71 492 -2 396 -22 599 -134 1355 -61
412 -95 671 -105 810 -4 47 -8 95 -10 108 -2 12 -2 22 1 22 2 0 37 -27 78 -60
41 -33 76 -60 79 -60 8 0 -11 84 -33 151 -33 99 -121 271 -209 412 -45 70 -81
132 -81 137 0 5 -4 12 -10 15 -5 3 -10 5 -10 3z"/>
<path d="M2563 5528 c-68 -49 -112 -171 -114 -321 -1 -40 -4 -85 -8 -101 -6
-29 -7 -28 -58 50 -93 141 -176 208 -251 202 -32 -3 -37 -7 -45 -38 -23 -91
26 -180 100 -180 41 0 96 -28 129 -67 11 -13 45 -71 75 -128 30 -58 59 -103
64 -102 6 2 18 28 29 58 15 42 20 98 26 254 7 191 15 245 40 260 19 12 54 -3
88 -36 30 -29 34 -31 49 -17 20 21 29 99 13 127 -13 25 -67 61 -90 61 -8 0
-29 -10 -47 -22z"/>
<path d="M3810 5390 c-48 -48 -100 -220 -100 -333 0 -29 0 -28 -42 22 -80 95
-217 178 -280 169 -20 -3 -23 -10 -26 -50 -3 -39 1 -51 25 -78 23 -26 38 -33
75 -35 86 -6 133 -44 243 -194 32 -44 63 -81 67 -81 4 0 8 101 8 224 0 123 3
231 6 240 9 24 56 20 97 -9 35 -23 37 -24 47 -5 20 38 12 90 -19 121 -34 34
-72 38 -101 9z"/>
<path d="M4521 4810 c-32 -56 -53 -149 -58 -256 -5 -97 -3 -120 17 -188 30
-101 67 -153 115 -162 67 -12 96 15 116 111 10 48 3 92 -17 120 l-15 20 -15
-20 c-8 -11 -18 -33 -21 -48 -9 -42 -30 -44 -67 -8 -56 55 -67 129 -45 315 6
51 9 104 7 117 l-3 24 -14 -25z"/>
<path d="M5952 4340 c-49 -107 -82 -382 -59 -492 17 -79 95 -131 139 -91 33
29 58 93 58 151 0 28 -4 52 -10 52 -5 0 -19 -18 -30 -40 -25 -48 -40 -45 -77
17 -37 64 -41 148 -13 295 26 137 23 175 -8 108z"/>
<path d="M7157 4273 c-34 -141 -49 -241 -49 -334 0 -113 24 -179 81 -216 43
-29 56 -29 86 2 20 19 25 34 25 77 0 73 -11 87 -39 51 l-21 -28 -25 28 c-47
52 -56 151 -33 360 8 73 8 111 1 118 -7 7 -15 -12 -26 -58z"/>
<path d="M3842 4121 c-44 -98 -72 -219 -72 -313 0 -90 10 -121 53 -165 34 -37
69 -42 105 -17 42 29 82 134 62 164 -8 12 -16 8 -48 -23 -36 -35 -39 -37 -54
-20 -54 61 -62 155 -28 318 12 54 20 105 18 114 -2 9 -18 -17 -36 -58z"/>
<path d="M4838 3685 c-47 -24 -90 -40 -94 -37 -4 4 -5 2 -1 -3 3 -6 -53 -44
-124 -85 -112 -66 -130 -80 -144 -113 -8 -21 -13 -42 -10 -47 5 -8 86 35 339
178 80 45 101 62 113 90 25 61 15 64 -79 17z"/>
<path d="M5413 3598 c-5 -7 -35 -57 -67 -111 l-58 -98 47 -54 c68 -80 183
-165 223 -165 4 0 38 40 76 90 l68 90 37 -29 c20 -16 45 -38 56 -48 11 -10 48
-42 82 -71 61 -53 61 -53 92 -38 32 17 39 26 105 127 l42 67 -84 92 c-87 94
-165 160 -188 160 -7 0 -37 -35 -65 -77 -29 -43 -61 -88 -71 -100 l-20 -21
-91 77 c-83 69 -156 121 -169 121 -3 0 -10 -6 -15 -12z"/>
<path d="M4855 2415 c-64 -32 -135 -113 -135 -155 0 -17 15 -48 40 -81 22 -30
40 -61 40 -70 0 -10 -23 -45 -51 -78 -30 -36 -45 -61 -36 -61 30 0 83 25 112
52 16 16 65 47 109 69 43 22 92 49 109 61 29 21 62 82 53 97 -3 5 -45 -3 -94
-17 -98 -27 -144 -25 -180 9 -34 31 -29 66 12 86 32 15 36 15 51 -1 9 -9 27
-16 41 -16 22 0 24 4 24 43 0 30 -6 49 -18 60 -23 21 -38 21 -77 2z"/>
<path d="M6173 2370 c-68 -154 -104 -411 -69 -494 45 -107 151 -86 190 38 17
55 13 110 -8 103 -6 -2 -14 -20 -19 -40 -11 -46 -31 -53 -61 -20 -60 65 -68
170 -25 349 23 100 20 128 -8 64z"/>
<path d="M2700 2314 c-110 -51 -501 -219 -729 -315 -250 -105 -287 -129 -322
-204 -12 -25 -19 -63 -19 -101 0 -60 1 -62 45 -103 102 -94 141 -20 55 104
l-30 43 23 15 c57 37 272 138 530 249 382 164 401 172 446 213 48 44 90 126
64 124 -5 0 -33 -11 -63 -25z"/>
<path d="M3325 2069 c-21 -57 -47 -189 -52 -264 -5 -82 -3 -92 16 -117 26 -33
87 -51 137 -42 47 9 129 74 154 124 45 88 13 189 -77 249 -64 43 -170 72 -178
50z m88 -134 c34 -14 117 -90 117 -107 0 -5 -21 -22 -47 -38 -50 -32 -118 -41
-141 -18 -14 14 -16 116 -2 152 11 30 24 32 73 11z"/>
<path d="M2277 1720 c-33 -39 -46 -103 -54 -266 -3 -73 -9 -131 -14 -129 -4 3
-23 30 -43 60 -54 81 -136 159 -185 175 -55 18 -64 8 -69 -75 -5 -78 11 -105
63 -105 70 0 128 -57 227 -224 15 -25 31 -46 36 -46 5 0 17 26 28 58 16 48 19
87 19 252 1 107 2 199 3 203 3 10 30 -5 85 -47 l45 -35 16 40 c23 57 20 71
-21 111 -70 66 -99 72 -136 28z"/>
<path d="M996 1498 c-28 -32 -65 -118 -76 -178 -29 -154 8 -260 90 -260 38 0
90 58 97 107 6 49 -6 59 -48 38 -29 -15 -32 -15 -50 1 -45 41 -45 126 1 260
20 58 16 67 -14 32z"/>
<path d="M5581 1076 c-90 -292 -72 -506 43 -506 54 0 112 85 123 181 8 65 -6
63 -52 -7 -22 -33 -43 -54 -52 -52 -8 2 -26 23 -39 48 -29 54 -32 135 -9 225
22 83 31 175 17 175 -6 0 -20 -29 -31 -64z"/>
<path d="M5118 883 c-51 -55 -67 -113 -85 -323 l-8 -85 -38 70 c-63 114 -144
213 -201 246 -69 39 -101 38 -115 -2 -35 -100 18 -219 96 -219 39 0 98 -35
138 -82 27 -32 105 -185 105 -206 0 -30 22 -18 39 21 25 57 38 150 47 317 3
74 11 141 17 148 16 20 39 14 86 -23 24 -19 49 -35 56 -35 7 0 22 14 33 31 17
27 18 36 8 58 -17 41 -49 77 -83 95 -45 23 -65 20 -95 -11z"/>
<path d="M4226 643 c-24 -76 -36 -129 -51 -221 -18 -105 -18 -136 -4 -202 14
-66 47 -100 97 -100 33 0 41 5 69 48 33 50 53 109 53 155 0 40 -14 33 -55 -29
-22 -33 -43 -54 -52 -52 -8 2 -26 23 -39 48 -29 54 -32 135 -9 225 35 133 28
241 -9 128z"/>
<path d="M2251 598 c-40 -64 -64 -263 -42 -345 22 -81 112 -121 158 -71 33 37
53 84 53 128 0 22 -3 40 -7 40 -4 0 -22 -14 -39 -31 -38 -37 -55 -34 -85 13
-19 30 -20 44 -16 149 5 123 0 152 -22 117z"/>
</g>
</svg>
